<svg width="100" height="100" viewBox="0 0 100 100" fill="none" xmlns="http://www.w3.org/2000/svg">
<rect width="100" height="100" rx="50" fill="white"/>
<path d="M12.472 59.808C12.296 59.808 12.152 59.752 12.04 59.64C11.912 59.544 11.848 59.408 11.848 59.232C11.848 59.008 11.96 58.744 12.184 58.44C12.392 58.136 12.744 57.8 13.24 57.432C13.32 57.224 13.376 57.032 13.408 56.856C13.456 56.68 13.496 56.488 13.528 56.28C13.64 55.576 13.84 54.864 14.128 54.144C14.416 53.408 14.704 52.72 14.992 52.08C14.688 52.016 14.384 51.776 14.08 51.36C13.792 50.944 13.648 50.504 13.648 50.04C13.648 49.928 13.672 49.744 13.72 49.488C13.768 49.216 13.848 49.08 13.96 49.08C14.104 49.08 14.176 49.2 14.176 49.44C14.176 49.68 14.176 49.848 14.176 49.944C14.176 50.28 14.272 50.616 14.464 50.952C14.656 51.288 14.888 51.528 15.16 51.672C15.432 51.08 15.776 50.384 16.192 49.584C16.608 48.768 17.08 47.912 17.608 47.016C18.136 46.104 18.712 45.216 19.336 44.352C19.96 43.488 20.616 42.704 21.304 42C22.008 41.296 22.736 40.736 23.488 40.32C24.24 39.904 25.008 39.696 25.792 39.696C26.432 39.696 26.896 39.864 27.184 40.2C27.472 40.52 27.616 40.96 27.616 41.52C27.616 42.112 27.472 42.792 27.184 43.56C26.896 44.328 26.488 45.128 25.96 45.96C25.448 46.776 24.848 47.576 24.16 48.36C23.472 49.128 22.72 49.832 21.904 50.472C21.088 51.096 20.24 51.592 19.36 51.96C18.48 52.328 17.6 52.512 16.72 52.512C16.544 52.512 16.368 52.504 16.192 52.488C16.016 52.456 15.848 52.408 15.688 52.344C15.368 53.096 15.072 53.848 14.8 54.6C14.528 55.352 14.312 56.136 14.152 56.952C15.384 56.2 16.72 55.656 18.16 55.32C19.6 54.984 21.04 54.816 22.48 54.816C22.864 54.816 23.304 54.888 23.8 55.032C24.296 55.16 24.72 55.368 25.072 55.656C25.44 55.944 25.624 56.336 25.624 56.832C25.624 57.232 25.584 57.432 25.504 57.432C25.424 57.432 25.328 57.288 25.216 57C24.992 56.424 24.64 56.064 24.16 55.92C23.68 55.76 23.152 55.68 22.576 55.68C21.6 55.68 20.76 55.728 20.056 55.824C19.368 55.904 18.728 56.032 18.136 56.208C17.56 56.384 16.96 56.6 16.336 56.856C15.712 57.112 14.976 57.408 14.128 57.744C14 58.48 13.76 59.008 13.408 59.328C13.072 59.648 12.76 59.808 12.472 59.808ZM16.6 52.08C17.448 52.08 18.288 51.896 19.12 51.528C19.968 51.144 20.776 50.64 21.544 50.016C22.328 49.376 23.048 48.672 23.704 47.904C24.36 47.136 24.928 46.36 25.408 45.576C25.904 44.776 26.288 44.024 26.56 43.32C26.832 42.6 26.968 41.992 26.968 41.496C26.968 41.128 26.88 40.84 26.704 40.632C26.544 40.424 26.288 40.32 25.936 40.32C25.344 40.32 24.72 40.528 24.064 40.944C23.424 41.36 22.768 41.92 22.096 42.624C21.424 43.328 20.768 44.104 20.128 44.952C19.504 45.8 18.912 46.664 18.352 47.544C17.808 48.408 17.32 49.232 16.888 50.016C16.456 50.784 16.12 51.432 15.88 51.96C15.96 52.008 16.08 52.04 16.24 52.056C16.4 52.072 16.52 52.08 16.6 52.08ZM27.8928 52.992C27.8448 52.992 27.7728 52.944 27.6768 52.848C27.5808 52.752 27.5008 52.656 27.4368 52.56C27.3888 52.448 27.3888 52.392 27.4368 52.392C27.8848 52.328 28.3008 52.288 28.6848 52.272C29.0688 52.24 29.4288 52.224 29.7648 52.224C30.3568 52.224 30.8608 52.256 31.2768 52.32C31.7088 52.368 32.0528 52.432 32.3088 52.512C32.3568 52.528 32.3808 52.56 32.3808 52.608C32.3808 52.688 32.3328 52.728 32.2368 52.728C31.6608 52.728 30.9808 52.752 30.1968 52.8C29.4128 52.848 28.6448 52.912 27.8928 52.992ZM36.1733 57H33.9574L40.3665 39.5455H42.5483L48.9574 57H46.7415L41.5256 42.3068H41.3892L36.1733 57ZM36.9915 50.1818H45.9233V52.0568H36.9915V50.1818ZM59.6534 51.6477V43.9091H61.6648V57H59.6534V54.7841H59.517C59.2102 55.4489 58.733 56.0142 58.0852 56.4801C57.4375 56.9403 56.6193 57.1705 55.6307 57.1705C54.8125 57.1705 54.0852 56.9915 53.4489 56.6335C52.8125 56.2699 52.3125 55.7244 51.9489 54.9972C51.5852 54.2642 51.4034 53.3409 51.4034 52.2273V43.9091H53.4148V52.0909C53.4148 53.0455 53.6818 53.8068 54.2159 54.375C54.7557 54.9432 55.4432 55.2273 56.2784 55.2273C56.7784 55.2273 57.2869 55.0994 57.804 54.8438C58.3267 54.5881 58.7642 54.196 59.1165 53.6676C59.4744 53.1392 59.6534 52.4659 59.6534 51.6477ZM71.0419 43.9091V45.6136H64.2578V43.9091H71.0419ZM66.2351 40.7727H68.2464V53.25C68.2464 53.8182 68.3288 54.2443 68.4936 54.5284C68.6641 54.8068 68.88 54.9943 69.1413 55.0909C69.4084 55.1818 69.6896 55.2273 69.9851 55.2273C70.2067 55.2273 70.3885 55.2159 70.5305 55.1932C70.6726 55.1648 70.7862 55.142 70.8714 55.125L71.2805 56.9318C71.1442 56.983 70.9538 57.0341 70.7095 57.0852C70.4652 57.142 70.1555 57.1705 69.7805 57.1705C69.2124 57.1705 68.6555 57.0483 68.1101 56.804C67.5703 56.5597 67.1214 56.1875 66.7635 55.6875C66.4112 55.1875 66.2351 54.5568 66.2351 53.7955V40.7727ZM76.3601 49.125V57H74.3487V39.5455H76.3601V45.9545H76.5305C76.8374 45.2784 77.2976 44.7415 77.9112 44.3438C78.5305 43.9403 79.3544 43.7386 80.3828 43.7386C81.2749 43.7386 82.0561 43.9176 82.7266 44.2756C83.397 44.6278 83.9169 45.1705 84.2862 45.9034C84.6612 46.6307 84.8487 47.5568 84.8487 48.6818V57H82.8374V48.8182C82.8374 47.7784 82.5675 46.9744 82.0277 46.4062C81.4936 45.8324 80.7521 45.5455 79.8033 45.5455C79.1442 45.5455 78.5533 45.6847 78.0305 45.9631C77.5135 46.2415 77.1044 46.6477 76.8033 47.1818C76.5078 47.7159 76.3601 48.3636 76.3601 49.125Z" fill="black"/>
</svg>
